{
  "source": "C:\\Users\\Peter\\Desktop\\stuff\\MIUN\\quantitative_research\\video_compression\\videos\\UVG\\Beauty_1920x1080_120fps_420_8bit_YUV.y4m",
  "output": "C:\\Users\\Peter\\Desktop\\stuff\\MIUN\\quantitative_research\\video_compression\\compressed_videos\\UVG\\vp9\\8\\Beauty_1920x1080_120fps_420_8bit_YUV_vp9.webm",
  "codec": "vp9",
  "ok": "[yuv4mpegpipe @ 0000026146f45280] Stream #0: not enough frames to estimate rate; consider increasing probesize\nInput #0, yuv4mpegpipe, from 'C:\\Users\\Peter\\Desktop\\stuff\\MIUN\\quantitative_research\\video_compression\\videos\\UVG\\Beauty_1920x1080_120fps_420_8bit_YUV.y4m':\n  Duration: 00:00:05.00, start: 0.000000, bitrate: 2985989 kb/s\n  Stream #0:0: Video: rawvideo (I420 / 0x30323449), yuv420p(progressive), 1920x1080, 120 fps, 120 tbr, 120 tbn\n[out#0/webm @ 0000026146f49b00] Codec AVOption b:a (set bitrate (in bits/s)) has not been used for any stream. The most likely reason is either wrong type (e.g. a video option with no video streams) or that it is a private option of some decoder which was not actually used for any stream.\nStream mapping:\n  Stream #0:0 -> #0:0 (rawvideo (native) -> vp9 (libvpx-vp9))\nPress [q] to stop, [?] for help\n[libvpx-vp9 @ 0000026146f4c000] v1.15.2-100-g40561f514\nOutput #0, webm, to 'C:\\Users\\Peter\\Desktop\\stuff\\MIUN\\quantitative_research\\video_compression\\compressed_videos\\UVG\\vp9\\8\\Beauty_1920x1080_120fps_420_8bit_YUV_vp9.webm':\n  Metadata:\n    encoder         : Lavf62.3.100\n  Stream #0:0: Video: vp9, yuv420p(tv, progressive), 1920x1080, q=2-31, 8000 kb/s, 120 fps, 1k tbn\n    Metadata:\n      encoder         : Lavc62.11.100 libvpx-vp9\n    Side data:\n      cpb: bitrate max/min/avg: 0/0/0 buffer size: 8000000 vbv_delay: N/A\nframe=    6 fps=0.0 q=38.0 size=       0KiB time=00:00:00.05 bitrate=  77.0kbits/s speed=0.0961x elapsed=0:00:00.52    \nframe=   15 fps= 14 q=37.0 size=       0KiB time=00:00:00.12 bitrate=  30.8kbits/s speed=0.119x elapsed=0:00:01.04    \nframe=   22 fps= 14 q=39.0 size=       0KiB time=00:00:00.18 bitrate=  21.0kbits/s speed=0.117x elapsed=0:00:01.56    \nframe=   29 fps= 14 q=39.0 size=       0KiB time=00:00:00.24 bitrate=  15.9kbits/s speed=0.117x elapsed=0:00:02.06    \nframe=   35 fps= 14 q=39.0 size=       0KiB time=00:00:00.29 bitrate=  13.2kbits/s speed=0.113x elapsed=0:00:02.59    \nframe=   42 fps= 14 q=38.0 size=       0KiB time=00:00:00.35 bitrate=  11.0kbits/s speed=0.113x elapsed=0:00:03.10    \nframe=   45 fps= 12 q=38.0 size=       0KiB time=00:00:00.37 bitrate=  10.3kbits/s speed=0.104x elapsed=0:00:03.62    \nframe=   52 fps= 13 q=39.0 size=       0KiB time=00:00:00.43 bitrate=   8.9kbits/s speed=0.105x elapsed=0:00:04.13    \nframe=   60 fps= 13 q=38.0 size=       0KiB time=00:00:00.50 bitrate=   7.7kbits/s speed=0.108x elapsed=0:00:04.65    \nframe=   65 fps= 13 q=36.0 size=       0KiB time=00:00:00.54 bitrate=   7.1kbits/s speed=0.105x elapsed=0:00:05.16    \nframe=   73 fps= 13 q=37.0 size=       0KiB time=00:00:00.60 bitrate=   6.3kbits/s speed=0.107x elapsed=0:00:05.67    \nframe=   79 fps= 13 q=37.0 size=       0KiB time=00:00:00.65 bitrate=   5.8kbits/s speed=0.106x elapsed=0:00:06.20    \nframe=   87 fps= 13 q=37.0 size=       0KiB time=00:00:00.72 bitrate=   5.3kbits/s speed=0.108x elapsed=0:00:06.71    \nframe=   92 fps= 13 q=36.0 size=       0KiB time=00:00:00.76 bitrate=   5.0kbits/s speed=0.106x elapsed=0:00:07.23    \nframe=  100 fps= 13 q=37.0 size=       0KiB time=00:00:00.83 bitrate=   4.6kbits/s speed=0.108x elapsed=0:00:07.74    \nframe=  106 fps= 13 q=23.0 size=       0KiB time=00:00:00.88 bitrate=   4.4kbits/s speed=0.107x elapsed=0:00:08.26    \nframe=  115 fps= 13 q=40.0 size=       0KiB time=00:00:00.95 bitrate=   4.0kbits/s speed=0.109x elapsed=0:00:08.77    \nframe=  121 fps= 13 q=38.0 size=       0KiB time=00:00:01.00 bitrate=   3.8kbits/s speed=0.109x elapsed=0:00:09.28    \nframe=  128 fps= 13 q=38.0 size=       0KiB time=00:00:01.06 bitrate=   3.6kbits/s speed=0.109x elapsed=0:00:09.81    \nframe=  137 fps= 13 q=36.0 size=     768KiB time=00:00:01.14 bitrate=5510.8kbits/s speed=0.11x elapsed=0:00:10.33    \nframe=  143 fps= 13 q=37.0 size=     768KiB time=00:00:01.19 bitrate=5279.5kbits/s speed=0.11x elapsed=0:00:10.86    \nframe=  150 fps= 13 q=35.0 size=     768KiB time=00:00:01.25 bitrate=5033.2kbits/s speed=0.11x elapsed=0:00:11.37    \nframe=  158 fps= 13 q=34.0 size=     768KiB time=00:00:01.31 bitrate=4778.3kbits/s speed=0.111x elapsed=0:00:11.89    \nframe=  164 fps= 13 q=34.0 size=     768KiB time=00:00:01.36 bitrate=4603.5kbits/s speed=0.11x elapsed=0:00:12.40    \nframe=  171 fps= 13 q=35.0 size=     768KiB time=00:00:01.42 bitrate=4415.1kbits/s speed=0.11x elapsed=0:00:12.92    \nframe=  175 fps= 13 q=35.0 size=     768KiB time=00:00:01.45 bitrate=4314.1kbits/s speed=0.109x elapsed=0:00:13.43    \nframe=  183 fps= 13 q=35.0 size=     768KiB time=00:00:01.52 bitrate=4125.5kbits/s speed=0.109x elapsed=0:00:13.94    \nframe=  188 fps= 13 q=35.0 size=     768KiB time=00:00:01.56 bitrate=4015.8kbits/s speed=0.108x elapsed=0:00:14.47    \nframe=  196 fps= 13 q=34.0 size=     768KiB time=00:00:01.63 bitrate=3851.9kbits/s speed=0.109x elapsed=0:00:14.98    \nframe=  203 fps= 13 q=36.0 size=     768KiB time=00:00:01.69 bitrate=3719.1kbits/s speed=0.109x elapsed=0:00:15.49    \nframe=  208 fps= 13 q=36.0 size=     768KiB time=00:00:01.73 bitrate=3629.7kbits/s speed=0.108x elapsed=0:00:16.00    \nframe=  217 fps= 13 q=37.0 size=     768KiB time=00:00:01.80 bitrate=3479.1kbits/s speed=0.109x elapsed=0:00:16.52    \nframe=  221 fps= 13 q=36.0 size=     768KiB time=00:00:01.84 bitrate=3416.2kbits/s speed=0.108x elapsed=0:00:17.03    \nframe=  229 fps= 13 q=37.0 size=     768KiB time=00:00:01.90 bitrate=3296.8kbits/s speed=0.109x elapsed=0:00:17.55    \nframe=  235 fps= 13 q=40.0 size=     768KiB time=00:00:01.95 bitrate=3212.7kbits/s speed=0.108x elapsed=0:00:18.06    \nframe=  244 fps= 13 q=38.0 size=     768KiB time=00:00:02.03 bitrate=3094.2kbits/s speed=0.109x elapsed=0:00:18.59    \nframe=  250 fps= 13 q=36.0 size=     768KiB time=00:00:02.08 bitrate=3019.9kbits/s speed=0.109x elapsed=0:00:19.11    \nframe=  256 fps= 13 q=36.0 size=     768KiB time=00:00:02.13 bitrate=2949.1kbits/s speed=0.109x elapsed=0:00:19.61    \nframe=  266 fps= 13 q=37.0 size=    2048KiB time=00:00:02.21 bitrate=7568.7kbits/s speed=0.11x elapsed=0:00:20.13    \nframe=  271 fps= 13 q=38.0 size=    2048KiB time=00:00:02.25 bitrate=7429.0kbits/s speed=0.109x elapsed=0:00:20.64    \nframe=  280 fps= 13 q=42.0 size=    2048KiB time=00:00:02.33 bitrate=7190.2kbits/s speed=0.11x elapsed=0:00:21.17    \nframe=  286 fps= 13 q=41.0 size=    2048KiB time=00:00:02.38 bitrate=7039.4kbits/s speed=0.11x elapsed=0:00:21.68    \nframe=  295 fps= 13 q=37.0 size=    2048KiB time=00:00:02.45 bitrate=6824.6kbits/s speed=0.111x elapsed=0:00:22.19    \nframe=  301 fps= 13 q=35.0 size=    2048KiB time=00:00:02.50 bitrate=6688.6kbits/s speed=0.11x elapsed=0:00:22.70    \nframe=  308 fps= 13 q=36.0 size=    2048KiB time=00:00:02.56 bitrate=6536.6kbits/s speed=0.11x elapsed=0:00:23.23    \nframe=  316 fps= 13 q=35.0 size=    2048KiB time=00:00:02.63 bitrate=6371.1kbits/s speed=0.111x elapsed=0:00:23.74    \nframe=  322 fps= 13 q=36.0 size=    2048KiB time=00:00:02.68 bitrate=6252.4kbits/s speed=0.111x elapsed=0:00:24.26    \nframe=  331 fps= 13 q=37.0 size=    2048KiB time=00:00:02.75 bitrate=6082.4kbits/s speed=0.111x elapsed=0:00:24.78    \nframe=  336 fps= 13 q=37.0 size=    2048KiB time=00:00:02.80 bitrate=5991.9kbits/s speed=0.111x elapsed=0:00:25.29    \nframe=  345 fps= 13 q=36.0 size=    2048KiB time=00:00:02.87 bitrate=5835.6kbits/s speed=0.111x elapsed=0:00:25.80    \nframe=  351 fps= 13 q=37.0 size=    2048KiB time=00:00:02.92 bitrate=5735.8kbits/s speed=0.111x elapsed=0:00:26.33    \nframe=  359 fps= 13 q=39.0 size=    2048KiB time=00:00:02.99 bitrate=5608.0kbits/s speed=0.111x elapsed=0:00:26.84    \nframe=  366 fps= 13 q=38.0 size=    2048KiB time=00:00:03.05 bitrate=5500.7kbits/s speed=0.111x elapsed=0:00:27.37    \nframe=  372 fps= 13 q=38.0 size=    2048KiB time=00:00:03.10 bitrate=5412.0kbits/s speed=0.111x elapsed=0:00:27.88    \nframe=  381 fps= 13 q=38.0 size=    2048KiB time=00:00:03.17 bitrate=5284.2kbits/s speed=0.112x elapsed=0:00:28.40    \nframe=  388 fps= 13 q=38.0 size=    3072KiB time=00:00:03.23 bitrate=7783.2kbits/s speed=0.112x elapsed=0:00:28.91    \nframe=  398 fps= 14 q=40.0 size=    3072KiB time=00:00:03.31 bitrate=7587.7kbits/s speed=0.113x elapsed=0:00:29.42    \nframe=  404 fps= 13 q=38.0 size=    3072KiB time=00:00:03.36 bitrate=7475.0kbits/s speed=0.112x elapsed=0:00:29.94    \nframe=  413 fps= 14 q=36.0 size=    3072KiB time=00:00:03.44 bitrate=7312.1kbits/s speed=0.113x elapsed=0:00:30.47    \nframe=  418 fps= 13 q=36.0 size=    3072KiB time=00:00:03.48 bitrate=7224.6kbits/s speed=0.112x elapsed=0:00:30.98    \nframe=  427 fps= 14 q=38.0 size=    3072KiB time=00:00:03.55 bitrate=7072.4kbits/s speed=0.113x elapsed=0:00:31.49    \nframe=  431 fps= 13 q=38.0 size=    3072KiB time=00:00:03.59 bitrate=7006.7kbits/s speed=0.112x elapsed=0:00:32.01    \nframe=  440 fps= 14 q=39.0 size=    3072KiB time=00:00:03.66 bitrate=6863.4kbits/s speed=0.113x elapsed=0:00:32.52    \nframe=  446 fps= 14 q=38.0 size=    3072KiB time=00:00:03.71 bitrate=6771.1kbits/s speed=0.113x elapsed=0:00:33.03    \nframe=  454 fps= 14 q=37.0 size=    3072KiB time=00:00:03.78 bitrate=6651.8kbits/s speed=0.113x elapsed=0:00:33.55    \nframe=  460 fps= 13 q=22.0 size=    3072KiB time=00:00:03.83 bitrate=6565.0kbits/s speed=0.112x elapsed=0:00:34.08    \nframe=  469 fps= 14 q=35.0 size=    3072KiB time=00:00:03.90 bitrate=6439.0kbits/s speed=0.113x elapsed=0:00:34.59    \nframe=  474 fps= 14 q=36.0 size=    3072KiB time=00:00:03.95 bitrate=6371.1kbits/s speed=0.113x elapsed=0:00:35.10    \nframe=  482 fps= 14 q=36.0 size=    3072KiB time=00:00:04.01 bitrate=6265.3kbits/s speed=0.113x elapsed=0:00:35.62    \nframe=  489 fps= 14 q=36.0 size=    3072KiB time=00:00:04.07 bitrate=6175.7kbits/s speed=0.113x elapsed=0:00:36.13    \nframe=  496 fps= 14 q=39.0 size=    3072KiB time=00:00:04.13 bitrate=6088.5kbits/s speed=0.113x elapsed=0:00:36.65    \nframe=  501 fps= 13 q=21.0 size=    3072KiB time=00:00:04.17 bitrate=6027.7kbits/s speed=0.112x elapsed=0:00:37.16    \nframe=  509 fps= 14 q=36.0 size=    3072KiB time=00:00:04.24 bitrate=5933.0kbits/s speed=0.113x elapsed=0:00:37.68    \nframe=  515 fps= 13 q=35.0 size=    4096KiB time=00:00:04.29 bitrate=7818.5kbits/s speed=0.112x elapsed=0:00:38.19    \nframe=  524 fps= 14 q=36.0 size=    4096KiB time=00:00:04.36 bitrate=7684.2kbits/s speed=0.113x elapsed=0:00:38.72    \nframe=  529 fps= 13 q=36.0 size=    4096KiB time=00:00:04.40 bitrate=7611.6kbits/s speed=0.112x elapsed=0:00:39.22    \nframe=  536 fps= 13 q=35.0 size=    4096KiB time=00:00:04.46 bitrate=7512.2kbits/s speed=0.112x elapsed=0:00:39.74    \nframe=  542 fps= 13 q=35.0 size=    4096KiB time=00:00:04.51 bitrate=7429.0kbits/s speed=0.112x elapsed=0:00:40.25    \nframe=  549 fps= 13 q=35.0 size=    4096KiB time=00:00:04.57 bitrate=7334.3kbits/s speed=0.112x elapsed=0:00:40.78    \nframe=  557 fps= 13 q=36.0 size=    4096KiB time=00:00:04.64 bitrate=7229.0kbits/s speed=0.112x elapsed=0:00:41.30    \nframe=  562 fps= 13 q=35.0 size=    4096KiB time=00:00:04.68 bitrate=7164.6kbits/s speed=0.112x elapsed=0:00:41.81    \nframe=  570 fps= 13 q=35.0 size=    4096KiB time=00:00:04.75 bitrate=7064.1kbits/s speed=0.112x elapsed=0:00:42.32    \nframe=  574 fps= 13 q=36.0 size=    4096KiB time=00:00:04.78 bitrate=7014.9kbits/s speed=0.112x elapsed=0:00:42.83    \nframe=  576 fps= 13 q=36.0 size=    4096KiB time=00:00:04.80 bitrate=6990.5kbits/s speed=0.111x elapsed=0:00:43.35    \nframe=  576 fps= 13 q=36.0 size=    4096KiB time=00:00:04.80 bitrate=6990.5kbits/s speed=0.109x elapsed=0:00:43.87    \nframe=  576 fps= 13 q=36.0 size=    4096KiB time=00:00:04.80 bitrate=6990.5kbits/s speed=0.108x elapsed=0:00:44.38    \nframe=  576 fps= 13 q=36.0 size=    4096KiB time=00:00:04.80 bitrate=6990.5kbits/s speed=0.107x elapsed=0:00:44.90    \n[out#0/webm @ 0000026146f49b00] video:5085KiB audio:0KiB subtitle:0KiB other streams:0KiB global headers:0KiB muxing overhead: 0.093603%\nframe=  600 fps= 13 q=35.0 Lsize=    5090KiB time=00:00:05.00 bitrate=8339.2kbits/s speed=0.111x elapsed=0:00:44.98    \n",
  "seconds": 45.041887283325195,
  "probe_out": {}
}